@startuml

    !include lexakai.theme
    
    title "org.apache.wicket.examples.media"
    
    WicketExamplePage <|-- Home
    class Home
    {
        --(constructors)--
        +Home()
    }
    
    WicketExampleApplication <|-- VideosApplication
    class VideosApplication
    {
    }
    
@enduml

