@startuml

    !include lexakai.theme
    
    title "org.apache.wicket.extensions.markup.html.repeater.tree.nested"
    
    interface Iterator
    
    Item <|-- BranchItem
    class BranchItem<T>
    {
        --(constructors)--
        +BranchItem(String, int, IModel<T>)
        --(collection)--
        #boolean isLast()
    }
    
    Iterator <|-- Subtree.ModelIterator
    class Subtree.ModelIterator
    {
        --(constructors)--
        +ModelIterator()
    }
    
    Panel <|-- Subtree
    class Subtree<T>
    {
        --(constructors)--
        +Subtree(String, NestedTree<T>, IModel<T>)
        --
        +IModel<T> getModel()
        +T getModelObject()
        --(factory)--
        #BranchItem<T> newBranchItem(String id, int index, IModel<T>)
    }
    
@enduml

