@startuml

    !include lexakai.theme
    
    title "org.apache.wicket.extensions.markup.html.repeater.tree.content"
    
    Folder <|-- CheckFolder
    class CheckFolder<T>
    {
        --(constructors)--
        +CheckFolder(String, AbstractTree<T>, IModel<T>)
    }
    
    Folder <|-- CheckedFolder
    class CheckedFolder<T>
    {
        --(constructors)--
        +CheckedFolder(String, AbstractTree<T>, IModel<T>)
        --
        #void onUpdate(AjaxRequestTarget)
        --(factory)--
        #Component newCheckBox(String id, IModel<T>)
        #IModel<Boolean> newCheckBoxModel(IModel<T>)
    }
    
    StyledLinkLabel <|-- Folder
    class Folder<T>
    {
        --(constructors)--
        +Folder(String, AbstractTree<T>, IModel<T>)
        --
        #String getOpenStyleClass()
        #String getOtherStyleClass(T)
        #String getSelectedStyleClass()
        --(checks)--
        #boolean isSelected()
        --(io)--
        #String getClosedStyleClass()
    }
    
    Behavior <|-- StyledLinkLabel.StyleBehavior
    class StyledLinkLabel.StyleBehavior
    {
    }
    
    Panel <|-- StyledLinkLabel
    abstract class StyledLinkLabel<T>
    {
        --(constructors)--
        +StyledLinkLabel(String, IModel<T>)
        --
        +IModel<T> getModel()
        +T getModelObject()
        #String getStyleClass()
        #void onClick(Optional<AjaxRequestTarget>)
        --(checks)--
        #boolean isClickable()
        --(factory)--
        #Component newLabelComponent(String id, IModel<T>)
        #IModel<?> newLabelModel(IModel<T>)
        #MarkupContainer newLinkComponent(String id, IModel<T>)
    }
    
@enduml

